<mxfile host="app.diagrams.net" modified="2023-05-29T16:22:36.319Z" agent="Mozilla/5.0 (Windows NT 10.0; Win64; x64) AppleWebKit/537.36 (KHTML, like Gecko) Chrome/113.0.0.0 Safari/537.36" etag="BzvsnFNJiD2wY9Mh04qi" version="21.3.5" type="device">
  <diagram name="Page-1" id="NaIE0iuRqriaq7UGNfMM">
    <mxGraphModel dx="1970" dy="452" grid="1" gridSize="10" guides="1" tooltips="1" connect="1" arrows="1" fold="1" page="1" pageScale="1" pageWidth="850" pageHeight="1100" math="0" shadow="0">
      <root>
        <mxCell id="0" />
        <mxCell id="1" parent="0" />
        <mxCell id="u52zlS9aAu4xKUvh2S-K-1" value="" style="image;aspect=fixed;perimeter=ellipsePerimeter;html=1;align=center;shadow=0;dashed=0;spacingTop=3;image=img/lib/active_directory/database.svg;" parent="1" vertex="1">
          <mxGeometry x="1080" y="233" width="50" height="37" as="geometry" />
        </mxCell>
        <mxCell id="u52zlS9aAu4xKUvh2S-K-8" value="Web App" style="rounded=1;whiteSpace=wrap;html=1;" parent="1" vertex="1">
          <mxGeometry x="-31" y="269.5" width="80" height="30" as="geometry" />
        </mxCell>
        <mxCell id="u52zlS9aAu4xKUvh2S-K-30" value="Login" style="text;html=1;strokeColor=none;fillColor=none;align=center;verticalAlign=middle;whiteSpace=wrap;rounded=0;" parent="1" vertex="1">
          <mxGeometry x="100" y="248" width="60" height="30" as="geometry" />
        </mxCell>
        <mxCell id="u52zlS9aAu4xKUvh2S-K-31" value="Validate and Initiate Auth" style="text;html=1;strokeColor=none;fillColor=none;align=center;verticalAlign=middle;whiteSpace=wrap;rounded=0;" parent="1" vertex="1">
          <mxGeometry x="400" y="248" width="150" height="30" as="geometry" />
        </mxCell>
        <mxCell id="u52zlS9aAu4xKUvh2S-K-40" value="" style="group" parent="1" vertex="1" connectable="0">
          <mxGeometry x="205" y="209" width="160" height="221" as="geometry" />
        </mxCell>
        <mxCell id="u52zlS9aAu4xKUvh2S-K-9" value="" style="rounded=1;whiteSpace=wrap;html=1;" parent="u52zlS9aAu4xKUvh2S-K-40" vertex="1">
          <mxGeometry width="160" height="221" as="geometry" />
        </mxCell>
        <mxCell id="u52zlS9aAu4xKUvh2S-K-11" value="Authenticate User" style="rounded=1;whiteSpace=wrap;html=1;" parent="u52zlS9aAu4xKUvh2S-K-40" vertex="1">
          <mxGeometry x="17.5" y="61.5" width="120" height="20" as="geometry" />
        </mxCell>
        <mxCell id="u52zlS9aAu4xKUvh2S-K-12" value="User" style="rounded=1;whiteSpace=wrap;html=1;" parent="u52zlS9aAu4xKUvh2S-K-40" vertex="1">
          <mxGeometry x="17.5" y="114" width="120" height="20" as="geometry" />
        </mxCell>
        <mxCell id="u52zlS9aAu4xKUvh2S-K-13" value="Journal" style="rounded=1;whiteSpace=wrap;html=1;" parent="u52zlS9aAu4xKUvh2S-K-40" vertex="1">
          <mxGeometry x="17.5" y="172" width="120" height="20" as="geometry" />
        </mxCell>
        <mxCell id="u52zlS9aAu4xKUvh2S-K-14" value="API Connector Proxy" style="text;html=1;strokeColor=none;fillColor=none;align=center;verticalAlign=middle;whiteSpace=wrap;rounded=0;" parent="u52zlS9aAu4xKUvh2S-K-40" vertex="1">
          <mxGeometry x="10" y="10" width="135" height="30" as="geometry" />
        </mxCell>
        <mxCell id="u52zlS9aAu4xKUvh2S-K-32" value="Return JWT Toekn" style="text;html=1;strokeColor=none;fillColor=none;align=center;verticalAlign=middle;whiteSpace=wrap;rounded=0;" parent="1" vertex="1">
          <mxGeometry x="410" y="269.5" width="110" height="30" as="geometry" />
        </mxCell>
        <mxCell id="u52zlS9aAu4xKUvh2S-K-34" value="Access Token" style="text;html=1;strokeColor=none;fillColor=none;align=center;verticalAlign=middle;whiteSpace=wrap;rounded=0;" parent="1" vertex="1">
          <mxGeometry x="60" y="278" width="110" height="30" as="geometry" />
        </mxCell>
        <mxCell id="u52zlS9aAu4xKUvh2S-K-38" value="Request along with Jwt token in header" style="text;html=1;strokeColor=none;fillColor=none;align=center;verticalAlign=middle;whiteSpace=wrap;rounded=0;" parent="1" vertex="1">
          <mxGeometry x="50" y="340" width="110" height="30" as="geometry" />
        </mxCell>
        <mxCell id="u52zlS9aAu4xKUvh2S-K-41" value="" style="group" parent="1" vertex="1" connectable="0">
          <mxGeometry x="580" y="209" width="160" height="221" as="geometry" />
        </mxCell>
        <mxCell id="u52zlS9aAu4xKUvh2S-K-42" value="" style="rounded=1;whiteSpace=wrap;html=1;" parent="u52zlS9aAu4xKUvh2S-K-41" vertex="1">
          <mxGeometry width="160" height="221" as="geometry" />
        </mxCell>
        <mxCell id="u52zlS9aAu4xKUvh2S-K-43" value="Authenticate User" style="rounded=1;whiteSpace=wrap;html=1;" parent="u52zlS9aAu4xKUvh2S-K-41" vertex="1">
          <mxGeometry x="17.5" y="61.5" width="120" height="20" as="geometry" />
        </mxCell>
        <mxCell id="u52zlS9aAu4xKUvh2S-K-44" value="User" style="rounded=1;whiteSpace=wrap;html=1;" parent="u52zlS9aAu4xKUvh2S-K-41" vertex="1">
          <mxGeometry x="17.5" y="114" width="120" height="20" as="geometry" />
        </mxCell>
        <mxCell id="u52zlS9aAu4xKUvh2S-K-45" value="Journal" style="rounded=1;whiteSpace=wrap;html=1;" parent="u52zlS9aAu4xKUvh2S-K-41" vertex="1">
          <mxGeometry x="17.5" y="172" width="120" height="20" as="geometry" />
        </mxCell>
        <mxCell id="u52zlS9aAu4xKUvh2S-K-46" value="Rest API" style="text;html=1;strokeColor=none;fillColor=none;align=center;verticalAlign=middle;whiteSpace=wrap;rounded=0;" parent="u52zlS9aAu4xKUvh2S-K-41" vertex="1">
          <mxGeometry x="10" y="10" width="135" height="30" as="geometry" />
        </mxCell>
        <mxCell id="dlAiq_27PdR1iwF6Q4Ge-1" value="" style="endArrow=classic;startArrow=classic;html=1;rounded=0;entryX=0.5;entryY=0;entryDx=0;entryDy=0;exitX=0.5;exitY=1;exitDx=0;exitDy=0;" parent="u52zlS9aAu4xKUvh2S-K-41" source="u52zlS9aAu4xKUvh2S-K-43" target="u52zlS9aAu4xKUvh2S-K-44" edge="1">
          <mxGeometry width="50" height="50" relative="1" as="geometry">
            <mxPoint x="148" y="139" as="sourcePoint" />
            <mxPoint x="305" y="-22" as="targetPoint" />
          </mxGeometry>
        </mxCell>
        <mxCell id="u52zlS9aAu4xKUvh2S-K-50" value="" style="endArrow=classic;html=1;rounded=0;exitX=1;exitY=0;exitDx=0;exitDy=0;entryX=0;entryY=0;entryDx=0;entryDy=0;" parent="1" source="u52zlS9aAu4xKUvh2S-K-8" target="u52zlS9aAu4xKUvh2S-K-11" edge="1">
          <mxGeometry width="50" height="50" relative="1" as="geometry">
            <mxPoint x="370" y="260" as="sourcePoint" />
            <mxPoint x="420" y="210" as="targetPoint" />
            <Array as="points">
              <mxPoint x="50" y="270" />
            </Array>
          </mxGeometry>
        </mxCell>
        <mxCell id="u52zlS9aAu4xKUvh2S-K-51" value="" style="endArrow=classic;html=1;rounded=0;exitX=1;exitY=0;exitDx=0;exitDy=0;entryX=0;entryY=0;entryDx=0;entryDy=0;" parent="1" source="u52zlS9aAu4xKUvh2S-K-11" target="u52zlS9aAu4xKUvh2S-K-43" edge="1">
          <mxGeometry width="50" height="50" relative="1" as="geometry">
            <mxPoint x="370" y="278" as="sourcePoint" />
            <mxPoint x="544" y="279" as="targetPoint" />
            <Array as="points" />
          </mxGeometry>
        </mxCell>
        <mxCell id="u52zlS9aAu4xKUvh2S-K-52" value="" style="endArrow=classic;html=1;rounded=0;exitX=0;exitY=1;exitDx=0;exitDy=0;entryX=1;entryY=1;entryDx=0;entryDy=0;" parent="1" source="u52zlS9aAu4xKUvh2S-K-43" target="u52zlS9aAu4xKUvh2S-K-11" edge="1">
          <mxGeometry width="50" height="50" relative="1" as="geometry">
            <mxPoint x="50" y="390" as="sourcePoint" />
            <mxPoint x="100" y="340" as="targetPoint" />
          </mxGeometry>
        </mxCell>
        <mxCell id="u52zlS9aAu4xKUvh2S-K-53" value="" style="endArrow=classic;html=1;rounded=0;exitX=0;exitY=0.75;exitDx=0;exitDy=0;" parent="1" source="u52zlS9aAu4xKUvh2S-K-11" target="u52zlS9aAu4xKUvh2S-K-8" edge="1">
          <mxGeometry width="50" height="50" relative="1" as="geometry">
            <mxPoint x="360" y="300" as="sourcePoint" />
            <mxPoint x="50" y="286" as="targetPoint" />
          </mxGeometry>
        </mxCell>
        <mxCell id="u52zlS9aAu4xKUvh2S-K-56" value="" style="endArrow=classic;startArrow=classic;html=1;rounded=0;exitX=0.5;exitY=1;exitDx=0;exitDy=0;" parent="1" source="u52zlS9aAu4xKUvh2S-K-8" target="u52zlS9aAu4xKUvh2S-K-12" edge="1">
          <mxGeometry width="50" height="50" relative="1" as="geometry">
            <mxPoint x="60" y="410" as="sourcePoint" />
            <mxPoint x="110" y="360" as="targetPoint" />
            <Array as="points">
              <mxPoint x="9" y="330" />
            </Array>
          </mxGeometry>
        </mxCell>
        <mxCell id="u52zlS9aAu4xKUvh2S-K-57" value="" style="endArrow=classic;startArrow=classic;html=1;rounded=0;exitX=0.5;exitY=1;exitDx=0;exitDy=0;entryX=0;entryY=0.5;entryDx=0;entryDy=0;" parent="1" source="u52zlS9aAu4xKUvh2S-K-8" target="u52zlS9aAu4xKUvh2S-K-13" edge="1">
          <mxGeometry width="50" height="50" relative="1" as="geometry">
            <mxPoint x="20" y="420" as="sourcePoint" />
            <mxPoint x="70" y="370" as="targetPoint" />
            <Array as="points">
              <mxPoint x="9" y="390" />
            </Array>
          </mxGeometry>
        </mxCell>
        <mxCell id="u52zlS9aAu4xKUvh2S-K-58" value="" style="endArrow=classic;startArrow=classic;html=1;rounded=0;exitX=1;exitY=0.5;exitDx=0;exitDy=0;" parent="1" source="u52zlS9aAu4xKUvh2S-K-12" target="u52zlS9aAu4xKUvh2S-K-44" edge="1">
          <mxGeometry width="50" height="50" relative="1" as="geometry">
            <mxPoint x="450" y="400" as="sourcePoint" />
            <mxPoint x="500" y="350" as="targetPoint" />
          </mxGeometry>
        </mxCell>
        <mxCell id="u52zlS9aAu4xKUvh2S-K-59" value="" style="endArrow=classic;startArrow=classic;html=1;rounded=0;exitX=1;exitY=0.5;exitDx=0;exitDy=0;" parent="1" source="u52zlS9aAu4xKUvh2S-K-13" target="u52zlS9aAu4xKUvh2S-K-45" edge="1">
          <mxGeometry width="50" height="50" relative="1" as="geometry">
            <mxPoint x="353" y="390" as="sourcePoint" />
            <mxPoint x="608" y="390" as="targetPoint" />
          </mxGeometry>
        </mxCell>
        <mxCell id="u52zlS9aAu4xKUvh2S-K-60" value="Token validate and authorize the request" style="text;html=1;strokeColor=none;fillColor=none;align=center;verticalAlign=middle;whiteSpace=wrap;rounded=0;" parent="1" vertex="1">
          <mxGeometry x="380" y="350" width="190" height="30" as="geometry" />
        </mxCell>
        <mxCell id="u52zlS9aAu4xKUvh2S-K-61" value="" style="endArrow=classic;html=1;rounded=0;exitX=0.996;exitY=0.518;exitDx=0;exitDy=0;exitPerimeter=0;" parent="1" source="u52zlS9aAu4xKUvh2S-K-9" edge="1">
          <mxGeometry width="50" height="50" relative="1" as="geometry">
            <mxPoint x="420" y="360" as="sourcePoint" />
            <mxPoint x="350" y="290" as="targetPoint" />
            <Array as="points">
              <mxPoint x="390" y="323" />
              <mxPoint x="390" y="290" />
            </Array>
          </mxGeometry>
        </mxCell>
        <mxCell id="u52zlS9aAu4xKUvh2S-K-63" value="if Token expires ask for new token&amp;nbsp;" style="text;html=1;strokeColor=none;fillColor=none;align=center;verticalAlign=middle;whiteSpace=wrap;rounded=0;" parent="1" vertex="1">
          <mxGeometry x="390" y="299.5" width="190" height="30" as="geometry" />
        </mxCell>
        <mxCell id="u52zlS9aAu4xKUvh2S-K-75" value="Database" style="text;html=1;strokeColor=none;fillColor=none;align=center;verticalAlign=middle;whiteSpace=wrap;rounded=0;" parent="1" vertex="1">
          <mxGeometry x="1074" y="206.5" width="60" height="30" as="geometry" />
        </mxCell>
        <mxCell id="u52zlS9aAu4xKUvh2S-K-81" value="Static File Storage Server (NAS/SAN)" style="text;html=1;align=center;verticalAlign=middle;resizable=0;points=[];autosize=1;strokeColor=#;fillColor=none;" parent="1" vertex="1">
          <mxGeometry x="550" y="513" width="220" height="30" as="geometry" />
        </mxCell>
        <mxCell id="u52zlS9aAu4xKUvh2S-K-82" value="/Publisher/Journal/version/Static Files/ e.g. 1/1/1/coverphoto.jpg&lt;br&gt;/Publisher/Journal/version/Journal File/ e.g. 1/1/1/journalfile.pdf&amp;nbsp;" style="text;html=1;align=center;verticalAlign=middle;resizable=0;points=[];autosize=1;strokeColor=#;fillColor=none;" parent="1" vertex="1">
          <mxGeometry x="414" y="532" width="360" height="40" as="geometry" />
        </mxCell>
        <mxCell id="u52zlS9aAu4xKUvh2S-K-84" value="" style="shape=mxgraph.cisco.servers.fileserver;html=1;pointerEvents=1;dashed=0;fillColor=#036897;strokeColor=#ffffff;strokeWidth=2;verticalLabelPosition=bottom;verticalAlign=top;align=center;outlineConnect=0;" parent="1" vertex="1">
          <mxGeometry x="784" y="512" width="43" height="62" as="geometry" />
        </mxCell>
        <mxCell id="u52zlS9aAu4xKUvh2S-K-87" value="" style="endArrow=classic;startArrow=classic;html=1;rounded=0;entryX=0;entryY=0.5;entryDx=0;entryDy=0;" parent="1" source="u52zlS9aAu4xKUvh2S-K-88" target="u52zlS9aAu4xKUvh2S-K-8" edge="1">
          <mxGeometry width="50" height="50" relative="1" as="geometry">
            <mxPoint x="-101.50000000000546" y="287.5" as="sourcePoint" />
            <mxPoint x="-30" y="360" as="targetPoint" />
          </mxGeometry>
        </mxCell>
        <mxCell id="u52zlS9aAu4xKUvh2S-K-88" value="" style="image;aspect=fixed;perimeter=ellipsePerimeter;html=1;align=center;shadow=0;dashed=0;spacingTop=3;image=img/lib/active_directory/user_accounts.svg;" parent="1" vertex="1">
          <mxGeometry x="-150" y="262" width="50" height="48.5" as="geometry" />
        </mxCell>
        <mxCell id="u52zlS9aAu4xKUvh2S-K-89" value="Secure access to resources" style="text;html=1;strokeColor=none;fillColor=none;align=center;verticalAlign=middle;whiteSpace=wrap;rounded=0;" parent="1" vertex="1">
          <mxGeometry x="860" y="460" width="270" height="30" as="geometry" />
        </mxCell>
        <mxCell id="u52zlS9aAu4xKUvh2S-K-90" value="&lt;font style=&quot;font-size: 36px;&quot;&gt;HealthFit - Data Flow Diagram&lt;/font&gt;" style="text;html=1;strokeColor=none;fillColor=none;align=center;verticalAlign=middle;whiteSpace=wrap;rounded=0;fontStyle=1" parent="1" vertex="1">
          <mxGeometry x="-174.87" y="60" width="554.87" height="65" as="geometry" />
        </mxCell>
        <mxCell id="Yp2OCDicag0yn8rFJF22-16" value="/Publisher/Journal/version/Journal File/ e.g. 1/1/1/journalfile.pdf&amp;nbsp;" style="text;html=1;align=center;verticalAlign=middle;resizable=0;points=[];autosize=1;strokeColor=#;fillColor=none;" parent="1" vertex="1">
          <mxGeometry x="923" y="508" width="360" height="30" as="geometry" />
        </mxCell>
        <mxCell id="Yp2OCDicag0yn8rFJF22-17" value="Read Only Access Token with expirations" style="text;html=1;align=center;verticalAlign=middle;resizable=0;points=[];autosize=1;strokeColor=#;fillColor=none;" parent="1" vertex="1">
          <mxGeometry x="923" y="521" width="240" height="30" as="geometry" />
        </mxCell>
        <mxCell id="Yp2OCDicag0yn8rFJF22-18" value="Enabled Solr Indexer for fast document finding and processing" style="text;html=1;align=center;verticalAlign=middle;resizable=0;points=[];autosize=1;strokeColor=#;fillColor=none;" parent="1" vertex="1">
          <mxGeometry x="917.5" y="533" width="360" height="30" as="geometry" />
        </mxCell>
        <mxCell id="Yp2OCDicag0yn8rFJF22-19" value="" style="shape=mxgraph.cisco.servers.fileserver;html=1;pointerEvents=1;dashed=0;fillColor=#036897;strokeColor=#ffffff;strokeWidth=2;verticalLabelPosition=bottom;verticalAlign=top;align=center;outlineConnect=0;" parent="1" vertex="1">
          <mxGeometry x="886" y="503" width="43" height="62" as="geometry" />
        </mxCell>
        <mxCell id="Yp2OCDicag0yn8rFJF22-36" value="" style="endArrow=classic;startArrow=classic;html=1;rounded=0;entryX=0;entryY=0.5;entryDx=0;entryDy=0;" parent="1" source="u52zlS9aAu4xKUvh2S-K-65" target="u52zlS9aAu4xKUvh2S-K-1" edge="1">
          <mxGeometry width="50" height="50" relative="1" as="geometry">
            <mxPoint x="1140" y="380" as="sourcePoint" />
            <mxPoint x="1395" y="380" as="targetPoint" />
          </mxGeometry>
        </mxCell>
        <mxCell id="u52zlS9aAu4xKUvh2S-K-65" value="" style="rounded=1;whiteSpace=wrap;html=1;" parent="1" vertex="1">
          <mxGeometry x="820" y="71" width="165.5" height="366.95" as="geometry" />
        </mxCell>
        <mxCell id="Yp2OCDicag0yn8rFJF22-37" value="" style="endArrow=classic;startArrow=classic;html=1;rounded=0;exitX=1;exitY=0.5;exitDx=0;exitDy=0;" parent="1" source="u52zlS9aAu4xKUvh2S-K-42" edge="1">
          <mxGeometry width="50" height="50" relative="1" as="geometry">
            <mxPoint x="728" y="343" as="sourcePoint" />
            <mxPoint x="820" y="320" as="targetPoint" />
          </mxGeometry>
        </mxCell>
        <mxCell id="NQ9XTS_c7ATgbZWrcm6B-1" value="Large file will be uploaded in chucks" style="text;html=1;strokeColor=none;fillColor=none;align=center;verticalAlign=middle;whiteSpace=wrap;rounded=0;" parent="1" vertex="1">
          <mxGeometry x="918" y="547" width="224" height="30" as="geometry" />
        </mxCell>
        <mxCell id="NQ9XTS_c7ATgbZWrcm6B-2" value="File Storage Server (NAS/SAN)" style="text;html=1;align=center;verticalAlign=middle;resizable=0;points=[];autosize=1;strokeColor=#;fillColor=none;" parent="1" vertex="1">
          <mxGeometry x="922" y="493" width="190" height="30" as="geometry" />
        </mxCell>
        <mxCell id="Yp2OCDicag0yn8rFJF22-21" value="Services" style="text;html=1;strokeColor=none;fillColor=none;align=center;verticalAlign=middle;whiteSpace=wrap;rounded=0;" parent="1" vertex="1">
          <mxGeometry x="832.5" y="73.19208364501021" width="135" height="29.062956034088756" as="geometry" />
        </mxCell>
        <mxCell id="Yp2OCDicag0yn8rFJF22-22" value="Payment Gateways" style="rounded=1;whiteSpace=wrap;html=1;" parent="1" vertex="1">
          <mxGeometry x="842.5" y="147.9028205079219" width="120" height="19.375304022725842" as="geometry" />
        </mxCell>
        <mxCell id="Yp2OCDicag0yn8rFJF22-23" value="Email" style="rounded=1;whiteSpace=wrap;html=1;" parent="1" vertex="1">
          <mxGeometry x="842.5" y="186.45574946469958" width="120" height="19.375304022725842" as="geometry" />
        </mxCell>
        <mxCell id="Yp2OCDicag0yn8rFJF22-24" value="Third party API" style="rounded=1;whiteSpace=wrap;html=1;" parent="1" vertex="1">
          <mxGeometry x="842.5" y="231.52882513861968" width="120" height="19.375304022725842" as="geometry" />
        </mxCell>
        <mxCell id="Yp2OCDicag0yn8rFJF22-25" value="Other s" style="rounded=1;whiteSpace=wrap;html=1;" parent="1" vertex="1">
          <mxGeometry x="842.5" y="276.6019008125398" width="120" height="19.375304022725842" as="geometry" />
        </mxCell>
        <mxCell id="Yp2OCDicag0yn8rFJF22-26" value="User" style="rounded=1;whiteSpace=wrap;html=1;" parent="1" vertex="1">
          <mxGeometry x="847.5" y="320.5439686079544" width="120" height="19.375304022725842" as="geometry" />
        </mxCell>
        <mxCell id="Yp2OCDicag0yn8rFJF22-28" value="Journal" style="rounded=1;whiteSpace=wrap;html=1;" parent="1" vertex="1">
          <mxGeometry x="847.5" y="362.45484170243907" width="120" height="19.375304022725842" as="geometry" />
        </mxCell>
        <mxCell id="Yp2OCDicag0yn8rFJF22-29" value="DMS" style="rounded=1;whiteSpace=wrap;html=1;" parent="1" vertex="1">
          <mxGeometry x="847.5" y="402.3445136738584" width="120" height="19.375304022725842" as="geometry" />
        </mxCell>
        <mxCell id="WpSDpxmaFzPh7QF_ElCS-1" value="Identity &amp;amp; Access (SSO)" style="rounded=1;whiteSpace=wrap;html=1;" vertex="1" parent="1">
          <mxGeometry x="834.5" y="105.62" width="137.5" height="19.38" as="geometry" />
        </mxCell>
        <mxCell id="WpSDpxmaFzPh7QF_ElCS-2" value="" style="endArrow=classic;startArrow=classic;html=1;rounded=0;exitX=1;exitY=0.5;exitDx=0;exitDy=0;entryX=0;entryY=0.5;entryDx=0;entryDy=0;" edge="1" parent="1" target="Yp2OCDicag0yn8rFJF22-26">
          <mxGeometry width="50" height="50" relative="1" as="geometry">
            <mxPoint x="718" y="333" as="sourcePoint" />
            <mxPoint x="848" y="335" as="targetPoint" />
          </mxGeometry>
        </mxCell>
        <mxCell id="WpSDpxmaFzPh7QF_ElCS-3" value="" style="endArrow=classic;startArrow=classic;html=1;rounded=0;exitX=1;exitY=0.5;exitDx=0;exitDy=0;entryX=0;entryY=0.5;entryDx=0;entryDy=0;" edge="1" parent="1" target="Yp2OCDicag0yn8rFJF22-28">
          <mxGeometry width="50" height="50" relative="1" as="geometry">
            <mxPoint x="718" y="391" as="sourcePoint" />
            <mxPoint x="800" y="380" as="targetPoint" />
          </mxGeometry>
        </mxCell>
        <mxCell id="WpSDpxmaFzPh7QF_ElCS-4" value="" style="endArrow=classic;startArrow=classic;html=1;rounded=0;exitX=1;exitY=0.5;exitDx=0;exitDy=0;" edge="1" parent="1" target="Yp2OCDicag0yn8rFJF22-29">
          <mxGeometry width="50" height="50" relative="1" as="geometry">
            <mxPoint x="718" y="391" as="sourcePoint" />
            <mxPoint x="848" y="412" as="targetPoint" />
          </mxGeometry>
        </mxCell>
        <mxCell id="WpSDpxmaFzPh7QF_ElCS-5" value="" style="endArrow=classic;startArrow=classic;html=1;rounded=0;exitX=0.5;exitY=0;exitDx=0;exitDy=0;exitPerimeter=0;" edge="1" parent="1">
          <mxGeometry width="50" height="50" relative="1" as="geometry">
            <mxPoint x="806" y="512" as="sourcePoint" />
            <mxPoint x="898" y="422" as="targetPoint" />
          </mxGeometry>
        </mxCell>
        <mxCell id="WpSDpxmaFzPh7QF_ElCS-6" value="" style="endArrow=classic;startArrow=classic;html=1;rounded=0;exitX=0.5;exitY=0;exitDx=0;exitDy=0;entryX=0.5;entryY=1;entryDx=0;entryDy=0;exitPerimeter=0;" edge="1" parent="1">
          <mxGeometry width="50" height="50" relative="1" as="geometry">
            <mxPoint x="908" y="503" as="sourcePoint" />
            <mxPoint x="908" y="422" as="targetPoint" />
          </mxGeometry>
        </mxCell>
      </root>
    </mxGraphModel>
  </diagram>
</mxfile>
